<?xml version="1.0" encoding="UTF-8" standalone="no"?>
<svg
   xmlns:dc="http://purl.org/dc/elements/1.1/"
   xmlns:cc="http://creativecommons.org/ns#"
   xmlns:rdf="http://www.w3.org/1999/02/22-rdf-syntax-ns#"
   xmlns:svg="http://www.w3.org/2000/svg"
   xmlns="http://www.w3.org/2000/svg"
   xmlns:sodipodi="http://sodipodi.sourceforge.net/DTD/sodipodi-0.dtd"
   xmlns:inkscape="http://www.inkscape.org/namespaces/inkscape"
   version="1.1"
   id="Icons"
   x="0px"
   y="0px"
   viewBox="0 0 32 32"
   style="enable-background:new 0 0 32 32;"
   xml:space="preserve"
   sodipodi:docname="cars&amp;trucks.svg"
   inkscape:version="1.0.1 (3bc2e813f5, 2020-09-07)"><metadata
   id="metadata58"><rdf:RDF><cc:Work
       rdf:about=""><dc:format>image/svg+xml</dc:format><dc:type
         rdf:resource="http://purl.org/dc/dcmitype/StillImage" /></cc:Work></rdf:RDF></metadata><defs
   id="defs56" /><sodipodi:namedview
   pagecolor="#ffffff"
   bordercolor="#666666"
   borderopacity="1"
   objecttolerance="10"
   gridtolerance="10"
   guidetolerance="10"
   inkscape:pageopacity="0"
   inkscape:pageshadow="2"
   inkscape:window-width="960"
   inkscape:window-height="1029"
   id="namedview54"
   showgrid="false"
   inkscape:zoom="11.92641"
   inkscape:cx="10.609658"
   inkscape:cy="5.2944536"
   inkscape:window-x="960"
   inkscape:window-y="367"
   inkscape:window-maximized="0"
   inkscape:current-layer="Icons" />
<style
   type="text/css"
   id="style37">
	.st0{fill:none;stroke:#000000;stroke-width:2;stroke-linecap:round;stroke-linejoin:round;stroke-miterlimit:10;}
	.st1{fill:none;stroke:#000000;stroke-width:2;stroke-linejoin:round;stroke-miterlimit:10;}
</style>
<circle
   class="st0"
   cx="7"
   cy="23"
   r="3"
   id="circle39"
   style="stroke:#666666" />
<circle
   class="st0"
   cx="23"
   cy="23"
   r="3"
   id="circle41"
   style="stroke:#666666" />
<line
   class="st0"
   x1="28"
   y1="19"
   x2="30"
   y2="19"
   id="line43"
   style="stroke:#666666" />
<line
   class="st0"
   x1="4"
   y1="16"
   x2="24"
   y2="16"
   id="line45"
   style="stroke:#666666" />
<line
   class="st0"
   x1="13"
   y1="10"
   x2="10"
   y2="16"
   id="line47"
   style="stroke:#666666" />
<path
   class="st0"
   d="M26,23h4c0.6,0,1-0.4,1-1v-2c0-2.2-1.8-4-4-4h-3l-3.8-4.6c-0.8-0.9-1.9-1.4-3.1-1.4H9.5c-1.5,0-2.9,0.9-3.6,2.2  L4,16H3c-1.1,0-2,0.9-2,2v4c0,0.6,0.4,1,1,1h2"
   id="path49"
   style="stroke:#666666" />
<line
   class="st0"
   x1="10"
   y1="23"
   x2="20"
   y2="23"
   id="line51"
   style="stroke:#666666" />
</svg>
