<?xml version="1.0" encoding="UTF-8" standalone="no"?>
<svg
   xmlns:dc="http://purl.org/dc/elements/1.1/"
   xmlns:cc="http://creativecommons.org/ns#"
   xmlns:rdf="http://www.w3.org/1999/02/22-rdf-syntax-ns#"
   xmlns:svg="http://www.w3.org/2000/svg"
   xmlns="http://www.w3.org/2000/svg"
   xmlns:sodipodi="http://sodipodi.sourceforge.net/DTD/sodipodi-0.dtd"
   xmlns:inkscape="http://www.inkscape.org/namespaces/inkscape"
   version="1.1"
   id="Icons"
   x="0px"
   y="0px"
   viewBox="0 0 32 24"
   xml:space="preserve"
   sodipodi:docname="cars&amp;trucks.svg"
   inkscape:version="1.0.1 (3bc2e813f5, 2020-09-07)"
   width="32"
   height="24"><metadata
   id="metadata58"><rdf:RDF><cc:Work
       rdf:about=""><dc:format>image/svg+xml</dc:format><dc:type
         rdf:resource="http://purl.org/dc/dcmitype/StillImage" /><dc:title></dc:title></cc:Work></rdf:RDF></metadata><defs
   id="defs56" /><sodipodi:namedview
   pagecolor="#ffffff"
   bordercolor="#666666"
   borderopacity="1"
   objecttolerance="10"
   gridtolerance="10"
   guidetolerance="10"
   inkscape:pageopacity="0"
   inkscape:pageshadow="2"
   inkscape:window-width="1920"
   inkscape:window-height="1053"
   id="namedview54"
   showgrid="false"
   inkscape:zoom="16.632234"
   inkscape:cx="1.8071807"
   inkscape:cy="6.3753542"
   inkscape:window-x="0"
   inkscape:window-y="343"
   inkscape:window-maximized="0"
   inkscape:current-layer="Icons"
   inkscape:document-rotation="0"
   fit-margin-top="0"
   fit-margin-left="0"
   fit-margin-right="0"
   fit-margin-bottom="0" />
<style
   type="text/css"
   id="style37">
	.st0{fill:none;stroke:#000000;stroke-width:2;stroke-linecap:round;stroke-linejoin:round;stroke-miterlimit:10;}
	.st1{fill:none;stroke:#000000;stroke-width:2;stroke-linejoin:round;stroke-miterlimit:10;}
</style>






<g
   id="g844"
   transform="translate(0,3)"><circle
     class="st0"
     cx="7"
     cy="14"
     r="3"
     id="circle39"
     style="stroke:#666666" /><circle
     class="st0"
     cx="23"
     cy="14"
     r="3"
     id="circle41"
     style="stroke:#666666" /><line
     class="st0"
     x1="28"
     y1="10"
     x2="30"
     y2="10"
     id="line43"
     style="stroke:#666666" /><line
     class="st0"
     x1="4"
     y1="7"
     x2="24"
     y2="7"
     id="line45"
     style="stroke:#666666" /><line
     class="st0"
     x1="13"
     y1="1"
     x2="10"
     y2="7"
     id="line47"
     style="stroke:#666666" /><path
     class="st0"
     d="m 26,14 h 4 c 0.6,0 1,-0.4 1,-1 V 11 C 31,8.8 29.2,7 27,7 H 24 L 20.2,2.4 C 19.4,1.5 18.3,1 17.1,1 H 9.5 C 8,1 6.6,1.9 5.9,3.2 L 4,7 H 3 C 1.9,7 1,7.9 1,9 v 4 c 0,0.6 0.4,1 1,1 h 2"
     id="path49"
     style="stroke:#666666" /><line
     class="st0"
     x1="10"
     y1="14"
     x2="20"
     y2="14"
     id="line51"
     style="stroke:#666666" /></g>
</svg>
