<?xml version="1.0" encoding="UTF-8" standalone="no"?>
<svg
   xmlns:dc="http://purl.org/dc/elements/1.1/"
   xmlns:cc="http://creativecommons.org/ns#"
   xmlns:rdf="http://www.w3.org/1999/02/22-rdf-syntax-ns#"
   xmlns:svg="http://www.w3.org/2000/svg"
   xmlns="http://www.w3.org/2000/svg"
   xmlns:sodipodi="http://sodipodi.sourceforge.net/DTD/sodipodi-0.dtd"
   xmlns:inkscape="http://www.inkscape.org/namespaces/inkscape"
   width="24px"
   height="16px"
   viewBox="0 0 24 16"
   version="1.1"
   id="svg1141"
   sodipodi:docname="computers.svg"
   inkscape:version="1.0.1 (3bc2e813f5, 2020-09-07)">
  <metadata
     id="metadata1147">
    <rdf:RDF>
      <cc:Work
         rdf:about="">
        <dc:format>image/svg+xml</dc:format>
        <dc:type
           rdf:resource="http://purl.org/dc/dcmitype/StillImage" />
      </cc:Work>
    </rdf:RDF>
  </metadata>
  <defs
     id="defs1145" />
  <sodipodi:namedview
     pagecolor="#ffffff"
     bordercolor="#666666"
     borderopacity="1"
     objecttolerance="10"
     gridtolerance="10"
     guidetolerance="10"
     inkscape:pageopacity="0"
     inkscape:pageshadow="2"
     inkscape:window-width="960"
     inkscape:window-height="1029"
     id="namedview1143"
     showgrid="false"
     inkscape:zoom="23.2256"
     inkscape:cx="12.637676"
     inkscape:cy="10.703467"
     inkscape:window-x="960"
     inkscape:window-y="367"
     inkscape:window-maximized="0"
     inkscape:current-layer="Icons" />
  <!-- Generator: Sketch 52.5 (67469) - http://www.bohemiancoding.com/sketch -->
  <title
     id="title1129">computer</title>
  <desc
     id="desc1131">Created with Sketch.</desc>
  <g
     id="Icons"
     stroke="none"
     stroke-width="1"
     fill="none"
     fill-rule="evenodd">
    <rect
       id="Rectangle-Copy-91"
       x="0"
       y="-4"
       width="24"
       height="24" />
    <path
       d="m 20,14 c 1.1,0 1.99,-0.9 1.99,-2 L 22,2 C 22,0.9 21.1,0 20,0 H 4 C 2.9,0 2,0.9 2,2 v 10 c 0,1.1 0.9,2 2,2 H 1 c -0.55,0 -1,0.45 -1,1 0,0.55 0.45,1 1,1 h 22 c 0.55,0 1,-0.45 1,-1 0,-0.55 -0.45,-1 -1,-1 z M 5,2 h 14 c 0.55,0 1,0.45 1,1 v 8 c 0,0.55 -0.45,1 -1,1 H 5 C 4.45,12 4,11.55 4,11 V 3 C 4,2.45 4.45,2 5,2 Z"
       id="🔹-Icon-Color"
       fill="#1d1d1d"
       style="fill:#666666" />
  </g>
</svg>
