<?xml version="1.0" encoding="UTF-8" standalone="no"?>
<svg
   xmlns:dc="http://purl.org/dc/elements/1.1/"
   xmlns:cc="http://creativecommons.org/ns#"
   xmlns:rdf="http://www.w3.org/1999/02/22-rdf-syntax-ns#"
   xmlns:svg="http://www.w3.org/2000/svg"
   xmlns="http://www.w3.org/2000/svg"
   xmlns:sodipodi="http://sodipodi.sourceforge.net/DTD/sodipodi-0.dtd"
   xmlns:inkscape="http://www.inkscape.org/namespaces/inkscape"
   id="Layer_1"
   data-name="Layer 1"
   viewBox="0 0 25 25"
   version="1.1"
   sodipodi:docname="furniture.svg"
   inkscape:version="1.0.1 (3bc2e813f5, 2020-09-07)">
  <metadata
     id="metadata10">
    <rdf:RDF>
      <cc:Work
         rdf:about="">
        <dc:format>image/svg+xml</dc:format>
        <dc:type
           rdf:resource="http://purl.org/dc/dcmitype/StillImage" />
        <dc:title>Sofa Chair</dc:title>
      </cc:Work>
    </rdf:RDF>
  </metadata>
  <defs
     id="defs8" />
  <sodipodi:namedview
     pagecolor="#ffffff"
     bordercolor="#666666"
     borderopacity="1"
     objecttolerance="10"
     gridtolerance="10"
     guidetolerance="10"
     inkscape:pageopacity="0"
     inkscape:pageshadow="2"
     inkscape:window-width="1920"
     inkscape:window-height="1053"
     id="namedview6"
     showgrid="false"
     inkscape:zoom="34.48"
     inkscape:cx="12.5"
     inkscape:cy="12.5"
     inkscape:window-x="0"
     inkscape:window-y="343"
     inkscape:window-maximized="0"
     inkscape:current-layer="Layer_1" />
  <title
     id="title2">Sofa Chair</title>
  <path
     id="Sofa_Chair"
     data-name="Sofa Chair"
     d="M25,12.5A3.5,3.5,0,0,0,21.5,9a3.43,3.43,0,0,0-.5.05V4.49A2.58,2.58,0,0,0,18.4,2H6.4A2.42,2.42,0,0,0,4,4.49V9.05A3.45,3.45,0,0,0,3.5,9,3.49,3.49,0,0,0,2,15.65V18.5A2.44,2.44,0,0,0,4,21v2H5V21H20v2h1V20.92a2.56,2.56,0,0,0,2-2.42V15.64A3.49,3.49,0,0,0,25,12.5Zm-20-8A1.42,1.42,0,0,1,6.4,3h12A1.59,1.59,0,0,1,20,4.49V9.35a3.5,3.5,0,0,0-2,3.15V15H7V12.5A3.5,3.5,0,0,0,5,9.35ZM21.48,15H21v1h.48a3.49,3.49,0,0,0,.52-.05V18.5A1.59,1.59,0,0,1,20.4,20H4.4A1.42,1.42,0,0,1,3,18.5V15.95a3.45,3.45,0,0,0,.5.05H4V15H3.5A2.5,2.5,0,1,1,6,12.5v3a.5.5,0,0,0,.5.5h12a.5.5,0,0,0,.5-.5v-3A2.5,2.5,0,1,1,21.48,15Z"
     fill="#0e1d25"
     style="fill:#606060;fill-opacity:1" />
</svg>
