<?xml version="1.0" encoding="utf-8"?>
<!-- Generator: Adobe Illustrator 25.2.0, SVG Export Plug-In . SVG Version: 6.00 Build 0)  -->
<svg version="1.1" id="Layer_1" xmlns="http://www.w3.org/2000/svg" xmlns:xlink="http://www.w3.org/1999/xlink" x="0px" y="0px"
	 viewBox="0 0 79.63 113.42" style="enable-background:new 0 0 79.63 113.42;" xml:space="preserve">
<style type="text/css">
	.st0{display:none;fill:#231F20;stroke:#FFFFFF;stroke-width:0.7304;stroke-miterlimit:10;}
	.st1{fill:#231F20;}
</style>
<g id="Icon">
	<circle class="st0" cx="39.99" cy="40.28" r="36.81"/>
	<g>
		<path class="st1" d="M36.9,56.89c-2.25,0.99-6.48,1.98-11.57,1.98c-11.78,0-18.65-7.44-14.98-21.15
			c3.51-13.08,14.75-21.95,27.71-21.95c5.21,0,8.2,1.12,9.42,1.86L45,22.04c-1.78-0.99-4.5-1.74-7.97-1.74
			c-9.8,0-17.99,6.26-20.93,17.24c-2.74,10.23,1.39,16.8,11.56,16.8c3.29,0,6.82-0.68,9.27-1.74L36.9,56.89z"/>
		<path class="st1" d="M53.62,16.46h5.39l-9.99,37.27h17.86l-1.21,4.53H42.43L53.62,16.46z"/>
	</g>
	<path class="st1" d="M39.82,0C17.83,0,0,17.83,0,39.82c0,21.99,36.47,73.61,39.82,73.61c3.75,0,39.82-51.62,39.82-73.61
		C79.63,17.83,61.81,0,39.82,0z M39.82,73.32c-18.25,0-33.04-14.79-33.04-33.04c0-18.25,14.79-33.04,33.04-33.04
		c18.25,0,33.04,14.79,33.04,33.04C72.86,58.53,58.06,73.32,39.82,73.32z"/>
</g>
</svg>
